<?xml version="1.0" encoding="UTF-8"?>
<svg width="26px" height="28px" viewBox="0 0 26 28" version="1.1" xmlns="http://www.w3.org/2000/svg" xmlns:xlink="http://www.w3.org/1999/xlink">
    <!-- Generator: Sketch 60.1 (88133) - https://sketch.com -->
    <title>logo/OmintWhite O</title>
    <desc>Created with Sketch.</desc>
    <g id="logo/OmintWhite-O" stroke="none" stroke-width="1" fill="none" fill-rule="evenodd">
        <path d="M12.9197307,4.17055066 C18.6169515,4.17055066 19.6948041,9.38304851 19.6948041,14.0051787 C19.6948041,18.616261 18.6169515,23.8273779 12.9197307,23.8273779 C7.22250993,23.8273779 6.14534783,18.616261 6.14534783,14.0051787 C6.14534783,9.38304851 7.22458139,4.17055066 12.9197307,4.17055066 L12.9197307,4.17055066 Z M12.9197307,27.9993095 C21.8180563,27.9993095 25.83739,21.9292249 25.83739,14.0051787 C25.83739,6.06801312 21.8194373,0 12.9197307,0 C4.02002417,0 8.52651283e-14,6.06801312 8.52651283e-14,14.0051787 C8.52651283e-14,21.9292249 4.02071466,27.9993095 12.9197307,27.9993095 L12.9197307,27.9993095 Z M14.0127796,16.2858228 C13.3989353,16.9341915 11.9323377,18.8337254 12.5834684,22.2240241 C12.5834684,22.2240241 7.2059438,18.1321891 11.4690199,12.7090923 C11.4690199,12.7090923 14.1888542,9.40234273 12.5413486,5.89535153 C12.5413486,5.89535153 18.9276769,10.7025326 14.2516887,16.0041035 C14.1784278,16.1031886 14.0986074,16.1973712 14.0127796,16.2858228" id="Fill-3" fill="#FFFFFF"></path>
    </g>
</svg>