<?xml version="1.0" encoding="UTF-8"?>
<svg width="104px" height="28px" viewBox="0 0 104 28" version="1.1" xmlns="http://www.w3.org/2000/svg" xmlns:xlink="http://www.w3.org/1999/xlink">
    <!-- Generator: Sketch 60.1 (88133) - https://sketch.com -->
    <title>logo/OmintWhite</title>
    <desc>Created with Sketch.</desc>
    <g id="logo/OmintWhite" stroke="none" stroke-width="1" fill="none" fill-rule="evenodd">
        <path d="M89.7635077,12.2906957 C89.0951148,9.57224236 85.4824789,8.19471776 83.6181598,8.19471776 C80.7871569,8.19471776 79.03884,9.30985672 77.8871051,11.0257207 L77.8125324,11.1341274 L77.8125324,10.0707751 C77.7679268,9.33036423 77.1540135,8.75304678 76.4122216,8.75401346 L72.2644571,8.75401346 L72.2644571,27.4399448 L77.8477473,27.4399448 L77.8477473,16.1954083 C77.9230105,13.4762645 79.4496806,11.9143794 81.1993786,11.9143794 C83.9551182,11.9143794 84.5137235,14.1826342 84.5503194,16.1954083 L84.5503194,26.0403936 C84.5507336,26.8115312 85.1753496,27.4368376 85.9464871,27.4379423 L90.13575,27.4379423 L90.13575,15.2667012 C90.1283618,14.2635595 90.0034524,13.2646988 89.7635077,12.2906957 L89.7635077,12.2906957 Z M62.8530986,27.4399448 L68.4391507,27.4399448 L68.4391507,8.74980148 L62.8530986,8.74980148 L62.8530986,27.4399448 Z M12.9197307,4.17055066 C18.6169515,4.17055066 19.6948041,9.38304851 19.6948041,14.0051787 C19.6948041,18.616261 18.6169515,23.8273779 12.9197307,23.8273779 C7.22250993,23.8273779 6.14534783,18.616261 6.14534783,14.0051787 C6.14534783,9.38304851 7.22458139,4.17055066 12.9197307,4.17055066 L12.9197307,4.17055066 Z M12.9197307,27.9993095 C21.8180563,27.9993095 25.83739,21.9292249 25.83739,14.0051787 C25.83739,6.06801312 21.8194373,0 12.9197307,0 C4.02002417,0 8.52651283e-14,6.06801312 8.52651283e-14,14.0051787 C8.52651283e-14,21.9292249 4.02071466,27.9993095 12.9197307,27.9993095 L12.9197307,27.9993095 Z M103.168652,12.4722941 L103.168652,8.74987053 L98.9621958,8.74987053 L98.9621958,4.45226998 C98.96261,3.68023477 98.3380632,3.05354738 97.566028,3.05126877 L93.3775246,3.05126877 L93.3816675,21.6702917 C93.3816675,25.7262213 94.3110651,28 98.6715001,28 C99.4482997,28 102.429139,27.7383049 103.060936,27.4407043 L103.060936,24.1629553 C102.467115,24.2016226 101.870533,24.2755049 101.273192,24.2755049 C99.3350596,24.2755049 98.9656482,23.6050406 98.9656482,21.1489729 L98.9656482,12.4722941 L103.168652,12.4722941 Z M58.5817366,11.7265665 C57.8007941,9.68133955 54.709477,8.19195581 52.6228206,8.19195581 C49.7918177,8.19195581 48.0441913,9.30709477 46.2951838,11.7265665 C45.5135508,9.68133955 42.4215432,8.19195581 40.3376489,8.19195581 C37.506646,8.19195581 35.758329,9.30709477 34.6065942,10.9476955 L34.5313309,11.0567927 L34.5313309,10.1501813 C34.5305714,9.37793889 33.903953,8.75256344 33.1317107,8.75332298 L28.9811842,8.75332298 L28.9811842,27.4399448 L34.5658553,27.4399448 L34.5658553,16.1954083 C34.6411186,13.4762645 36.1684792,11.9143794 37.9181771,11.9143794 C40.6739168,11.9143794 41.232522,14.1826342 41.2691179,16.1954083 L41.2691179,27.4399448 L46.8544795,27.4399448 L46.8544795,16.1954083 C46.9276713,13.4762645 48.453651,11.9143794 50.2033489,11.9143794 C52.9604695,11.9143794 53.5176938,14.1826342 53.5549801,16.1954083 L53.5549801,26.0314172 L53.5549801,26.0376316 C53.556154,26.8100121 54.1828414,27.4355256 54.9552909,27.4351804 L59.1403418,27.4351804 L59.1403418,16.1954083 C59.1403418,14.7074055 59.1748662,13.1427585 58.5817366,11.7265665 L58.5817366,11.7265665 Z M12.5413486,5.89535153 C12.5413486,5.89535153 18.9276769,10.7025326 14.2516887,16.0041035 C14.1784278,16.1031886 14.0986074,16.1973712 14.0127796,16.2858228 C13.3989353,16.9341915 11.9323377,18.8337254 12.5834684,22.2240241 C12.5834684,22.2240241 7.2059438,18.1321891 11.4690199,12.7090923 C11.4690199,12.7090923 14.1888542,9.40234273 12.5413486,5.89535153 Z M65.6454341,0.0959779044 C67.2582082,0.097082686 68.5650958,1.4046608 68.5655102,3.01743484 C68.5659244,4.63124461 67.257932,5.93985845 65.6440532,5.94027281 C64.0301743,5.94061799 62.7215605,4.63262558 62.7212152,3.01881581 C62.720801,1.40493699 64.0287934,0.0963921975 65.6426722,0.0959779044 L65.6454341,0.0959779044 Z" id="Fill-3" fill="#FFFFFF"></path>
    </g>
</svg>